/* XPM */
static char *picmi[] = {
/* columns rows colors chars-per-pixel */
"32 32 183 2 ",
"   c #020501",
".  c #080705",
"X  c #030B01",
"o  c #0A0A05",
"O  c #0B0C0B",
"+  c #130D04",
"@  c #120F09",
"#  c #041501",
"$  c #091305",
"%  c #041C00",
"&  c #081904",
"*  c #0C1209",
"=  c #0F1909",
"-  c #14130B",
";  c #1B160D",
":  c #151B0C",
">  c #1C1C0E",
",  c #121211",
"<  c #1B1B1B",
"1  c #23190B",
"2  c #2A1D09",
"3  c #221C14",
"4  c #052500",
"5  c #0B2505",
"6  c #052B01",
"7  c #0D2A06",
"8  c #15210C",
"9  c #1A210F",
"0  c #122B09",
"q  c #192C0D",
"w  c #14330A",
"e  c #153A0B",
"r  c #193C0D",
"t  c #1D2310",
"y  c #1D2D12",
"u  c #1E3F11",
"i  c #2E2415",
"p  c #252D15",
"a  c #24201B",
"s  c #322714",
"d  c #382C17",
"f  c #332919",
"g  c #203511",
"h  c #243C13",
"j  c #2A3F17",
"k  c #293B1A",
"l  c #30371C",
"z  c #343B1E",
"x  c #2E2A23",
"c  c #3B3223",
"v  c #412E0F",
"b  c #592A05",
"n  c #443317",
"m  c #49391F",
"M  c #503D1E",
"N  c #4C3C23",
"B  c #1D420F",
"V  c #1E4110",
"C  c #214212",
"Z  c #254915",
"A  c #284C16",
"S  c #2E4519",
"D  c #344A1E",
"F  c #2A5016",
"G  c #395E1F",
"H  c #39601F",
"J  c #354B21",
"K  c #3D5526",
"L  c #3C5F20",
"P  c #3A6020",
"I  c #594017",
"U  c #5C4218",
"Y  c #61481C",
"T  c #414925",
"R  c #574629",
"E  c #425D29",
"W  c #594931",
"Q  c #664E25",
"!  c #684E23",
"~  c #614C29",
"^  c #69512D",
"/  c #7E5D22",
"(  c #73592E",
")  c #6E5731",
"_  c #426426",
"`  c #466C27",
"'  c #4A662A",
"]  c #4A6E29",
"[  c #4B712A",
"{  c #50742D",
"}  c #547431",
"|  c #567932",
" . c #5A7C34",
".. c #84440B",
"X. c #874A0D",
"o. c #8A4A0C",
"O. c #96540F",
"+. c #8E5110",
"@. c #915512",
"#. c #9C5C13",
"$. c #9F6017",
"%. c #9E601C",
"&. c #A26217",
"*. c #A4661A",
"=. c #A96C1C",
"-. c #B1731E",
";. c #856123",
":. c #8B6526",
">. c #8F6926",
",. c #89672C",
"<. c #936D29",
"1. c #9A712B",
"2. c #826330",
"3. c #A36620",
"4. c #A66A22",
"5. c #AA6E25",
"6. c #A76D28",
"7. c #A96E28",
"8. c #AE7325",
"9. c #A2772C",
"0. c #AE752B",
"q. c #AA7D2F",
"w. c #B77C27",
"e. c #BB7E22",
"r. c #B3792B",
"t. c #A67B33",
"y. c #AA7E31",
"u. c #5E8135",
"i. c #5F8238",
"p. c #618437",
"a. c #628639",
"s. c #66893B",
"d. c #6A8D3E",
"f. c #BE8325",
"g. c #BD832B",
"h. c #AD8132",
"j. c #B18738",
"k. c #BC873B",
"l. c #C08527",
"z. c #C58B2D",
"x. c #C88E2D",
"c. c #CB9520",
"v. c #CE9923",
"b. c #CC932B",
"n. c #CD992C",
"m. c #D79F23",
"M. c #C68E33",
"N. c #C28D3B",
"B. c #C69235",
"V. c #CB9536",
"C. c #CE9837",
"Z. c #CC9638",
"A. c #CD9A3B",
"S. c #D19E3E",
"D. c #DCA624",
"F. c #DEA825",
"G. c #D7A42E",
"H. c #D3A130",
"J. c #E3AE25",
"K. c #E6B126",
"L. c #F0BF29",
"P. c #F6C62A",
"I. c #C39141",
"U. c #CD9D44",
"Y. c #CD9C4A",
"T. c #D29F40",
"R. c #D4A444",
"E. c #D9A847",
"W. c #D2A34C",
"Q. c #DAAC4C",
"!. c #D5A551",
"~. c #D7A852",
"^. c #D8AA54",
"/. c #DFB353",
"(. c #DFB459",
"). c #E1B656",
"_. c #E1B75E",
"`. c #E4BB5C",
"'. c #E5BD61",
"]. c #EAC363",
"[. c gray69",
"{. c #BEBEBD",
"}. c None",
/* pixels */
"}.}.}.}.}.}.}.}.}.}.}.}.}.}.}.}.}.}.J.K.}.}.}.}.}.}.}.}.}.}.}.}.",
"}.}.}.}.}.}.}.}.}.}.}.}.}.}.}.}.}.}.m.H.}.}.}.}.}.}.}.}.}.J.K.}.",
"}.}.}.}.}.}.}.}.}.}.}.}.}.}.}.}.}.}.}.}.}.}.}.}.}.}.}.}.}.G.F.}.",
"}.}.}.}.}.}.}.}.}.}.}.}.}.}.}.}.}.}.}.}.}.}.}.}.}.}.}.}.}.}.}.}.",
"}.}.}.}.}.}.}.}.}.}.}.}.}.}.}.}.}.}.}.}.}.{.}.F.}.}.[.}.}.}.}.}.",
"}.}.}.}.}.}.}.}.}.}.}.}.}.}.}.}.}.}.}.}.}.n.K.P.P.R.}.}.}.}.}.}.",
"}.}.}.}.}.}.}.}.}.}.Y.W.!.^.^.^.^.^.!.~.W.M.B.n.c.c.}.}.}.}.}.}.",
"}.}.}.}.}.W.^._.'.).).).Q.Q.Q.E.E.Q.Q.Q.).).`.`.(.!.Y.}.}.}.}.}.",
"}.}.}.!.'.`.R.j.,.Q M d 3 ; @ o o o + + 2 v M / h.W.`.].W.}.}.}.",
"}.}.Y.].R.( x , * = y k J K E E E K K D j y + X . ; Y U.].Y.}.}.",
"}.}._./.R , X j ' }  . .i.a.s.d.d.d.s.i. . .} _ u   . n Q.(.}.}.",
"}.N.`.q.<   D ] ] [ [ [ [ [ [ [ [ [ [ [ [ [ [ [ ` h   O 9.`.k.}.",
"}.Y.).! o 8 _ ` [ { T T i.a.d.d.d.d.s.p.p.T T [ ] P $   U /.I.}.",
"}.W.W.f   h G H H H D z L L P P P P P H P z z P P G q   1 Q.Y.}.",
"}.Q.S.,   S G H l l [ { z z  . . . . .z z [ ] l l L h     A.W.}.",
"0.Q.h.O   w Z F p p F F p p A A F F F p p F A p p B 7     q.Q.7.",
"0.Q.1.    4 e B $ = : 9 t t _ _ _ _ _ 9 : : * $   e 7 X   1.Q.6.",
"r.Q.>.  X 4 6 6             6 6 6 6 6             6 4 X   >.Q.5.",
"r.Q.;.  X 7 w e r B V C Z A A A A A A Z Z C C r e w 7 X . ;.R.6.",
"8.R.>.  X 4 4 6 6 4 6 4 4 6 4 6 4 6 4 6 4 6 4 4 6 6 4 X O >.R.4.",
"5.R.1.  X 5 7 w w e     h h V h V C h u X . r w w 0 7 X O 1.R.3.",
"=.S.q.. X % 4 4 4 4     4 4 4 4 4 4 4 4     4 4 4 4 4   , q.A.%.",
"}.Z.B.O   % 5 7 0 0 w q         .       w w 0 0 7 5 4   < B.M.}.",
"}.M.A.i   # % % 4 4 % 4                 % 4 4 % 4 % X   c A.g.}.",
"}.w.C.! . X % & 4 5 5 0 5 0 0 0 0 0 0 0 0 5 5 5 4 & X O ) A.8.}.",
"}.=.C.9.,   X # % % % % # % % % % % # % # % % % # X   a t.Z.*.}.",
"}.}.z.V.N O     X X X # & & & & & & # & # $   X     O W V.g.}.}.",
"}.}.=.B.N.^ t * .                             . * a ) N.x.&.}.}.",
"}.}.}.*.l.x.M.t.2.~ N i 1 - o .   . @ ; i N ~ 2.t.M.z.f.$.}.}.}.",
"}.}.}.}.@.$.*.-.e.f.z.z.M.M.M.M.M.M.M.M.z.z.f.e.-.&.#.O.}.}.}.}.",
"}.}.}.}.o.o.o.}.....X.+.+.+.@.@.@.O.+.+.+.X.....}.o.o.o.}.}.}.}.",
"}.}.}.}.}.}.}.}.}.}.}.}.}.}.}.b b }.}.}.}.}.}.}.}.}.}.}.}.}.}.}."
};
